<svg xmlns="http://www.w3.org/2000/svg" viewBox="0 0 896.4 350.68"><defs><style>.cls-1{fill:#7e5bed;}</style></defs><g id="Layer_2" data-name="Layer 2"><g id="Layer_1-2" data-name="Layer 1"><path class="cls-1" d="M389,292.12c-24-1.9-43.27-12.79-63.22-26.79A175.26,175.26,0,0,0,175.34,0C78.66,0,0,78.66,0,175.34a174.29,174.29,0,0,0,28.76,96.1l-.34.43,1.26,1A175.12,175.12,0,0,0,294.87,303.5c25.54,18.12,54.72,35.4,93.08,37.66a8,8,0,0,0,8.51-8V300.1A8,8,0,0,0,389,292.12ZM175.34,49A126.3,126.3,0,0,1,285.8,236.61c-28.36-19.15-61.71-36-107.89-36-48.84,0-86.92,18.78-112.44,37.08A126.3,126.3,0,0,1,175.34,49ZM97.69,274.94c24.89-16.82,51.88-25.36,80.22-25.36,30.81,0,54.17,10.57,76,24.66a126.09,126.09,0,0,1-156.17.7Z"/><path class="cls-1" d="M395.71,75.41a5.17,5.17,0,0,1,5-5H433a5,5,0,0,1,5,5V181.7c0,18.37,13.64,33.06,32.28,33.06,18.89,0,32.8-14.69,32.8-33.06V75.41a5,5,0,0,1,5-5h32.28a5.17,5.17,0,0,1,5,5V183.8c0,39.89-33.59,72.95-75,72.95-41.21,0-74.54-33.06-74.54-72.95Z"/><path class="cls-1" d="M586.66,75.41a5.17,5.17,0,0,1,5-5h31.49a5.17,5.17,0,0,1,5,5V249.14a5.16,5.16,0,0,1-5,5H591.64a5.16,5.16,0,0,1-5-5Z"/><path class="cls-1" d="M671.05,75.41a5,5,0,0,1,5-5h31.23a5.17,5.17,0,0,1,5,5V215.55h62.46a5,5,0,0,1,5,5v28.6a5,5,0,0,1-5,5H676a5,5,0,0,1-5-5Z"/><path class="cls-1" d="M812.42,109H774.89a5,5,0,0,1-5-5V75.41a5,5,0,0,1,5-5H891.41a5,5,0,0,1,5,5V104a5,5,0,0,1-5,5H853.88V249.14a5.16,5.16,0,0,1-5,5H817.4a5.16,5.16,0,0,1-5-5Z"/></g></g></svg>